# xmcd
#
# Track frame offsets:
#	150
#	16475
#	35036
#	48898
#	72618
#	90933
#	112088
#	137852
#	149890
#	168015
#	187176
#
# Disc length: 2812 seconds
#
# Revision: 1
# Processed by: cddbd v1.5.1PL0 Copyright (c) Steve Scherf et al.
# Submitted via: dBpowerAMP V4.0
#
DISCID=a50afa0b
DTITLE=BlueShot - In The Shade Of BlueS
DYEAR=1900
DGENRE=Blues
TTITLE0=In The Shade Of Blues
TTITLE1=Broken
TTITLE2=Youve Got To Choose
TTITLE3=Dont Believe Its True
TTITLE4=The Station
TTITLE5=Bad Luck
TTITLE6=Blues For Anni
TTITLE7=Dessert Blues
TTITLE8=Sweet And Kind
TTITLE9=Rolling and Tumbling
TTITLE10=Rambling Blues
EXTD=
EXTT0=
EXTT1=
EXTT2=
EXTT3=
EXTT4=
EXTT5=
EXTT6=
EXTT7=
EXTT8=
EXTT9=
EXTT10=
PLAYORDER=
